<?xml version="1.0" encoding="UTF-8"?>
<svg xmlns="http://www.w3.org/2000/svg" xmlns:xlink="http://www.w3.org/1999/xlink" width="64pt" height="64pt" viewBox="0 0 64 64" version="1.1">
<g id="surface1">
<path style=" stroke:none;fill-rule:nonzero;fill:#000000;fill-opacity:1;" d="M 42.601563 12 C 42.289063 12 42 12.25 42 12.601563 L 42 23.59375 L 39.507813 22.140625 C 39.351563 22.046875 39.179688 22 39 22 C 38.820313 22 38.648438 22.046875 38.492188 22.140625 L 32.5 25.632813 C 32.195313 25.8125 32 26.148438 32 26.5 L 32 33.5 C 32 33.859375 32.195313 34.1875 32.5 34.367188 L 38.492188 37.859375 C 38.648438 37.953125 38.820313 38 39 38 C 39.179688 38 39.351563 37.953125 39.507813 37.859375 L 45.5 34.367188 C 45.804688 34.1875 46 33.851563 46 33.5 L 46 14.460938 C 46 14.101563 45.8125 13.78125 45.5 13.59375 L 42.898438 12.078125 C 42.796875 12.023438 42.703125 12 42.601563 12 Z M 23 22 C 22.828125 22 22.648438 22.046875 22.492188 22.140625 L 16.5 25.632813 C 16.195313 25.8125 16 26.148438 16 26.5 L 16 33.5 C 16 33.859375 16.195313 34.1875 16.5 34.367188 L 22.492188 37.859375 C 22.804688 38.039063 23.195313 38.039063 23.507813 37.859375 L 29.5 34.367188 C 29.804688 34.1875 30 33.851563 30 33.5 L 30 26.5 C 30 26.140625 29.804688 25.8125 29.5 25.632813 L 23.507813 22.140625 C 23.351563 22.046875 23.171875 22 23 22 Z M 55 22 C 54.820313 22 54.648438 22.046875 54.492188 22.140625 L 48.5 25.632813 C 48.195313 25.8125 48 26.148438 48 26.5 L 48 33.5 C 48 33.859375 48.195313 34.1875 48.5 34.367188 L 54.3125 37.875 C 54.625 38.070313 55.015625 38.070313 55.335938 37.882813 L 58.1875 36.226563 C 58.484375 36.054688 58.484375 35.625 58.1875 35.453125 L 52 31.8125 L 52 28.21875 L 55 26.46875 L 58 28.21875 L 58 30.71875 C 58 31.054688 58.28125 31.101563 58.46875 30.992188 C 59.226563 30.546875 61.5 29.226563 61.5 29.226563 C 61.8125 29.046875 62 28.71875 62 28.367188 L 62 26.5 C 62 26.140625 61.804688 25.8125 61.5 25.632813 L 55.507813 22.140625 C 55.351563 22.046875 55.179688 22 55 22 Z M 7 22.007813 C 6.820313 22.007813 6.648438 22.054688 6.492188 22.148438 L 0.5 25.632813 C 0.195313 25.8125 0 26.148438 0 26.507813 L 0 35.4375 C 0 35.867188 0.46875 36.140625 0.84375 35.921875 L 3.5 34.375 C 3.8125 34.195313 4 33.867188 4 33.507813 L 4 28.226563 L 7 26.476563 L 10 28.226563 L 10 33.507813 C 10 33.867188 10.1875 34.195313 10.5 34.375 L 13.15625 35.921875 C 13.53125 36.140625 14 35.867188 14 35.4375 L 14 26.507813 C 14 26.148438 13.804688 25.8125 13.5 25.632813 L 7.507813 22.148438 C 7.351563 22.054688 7.179688 22.007813 7 22.007813 Z M 39 26.46875 L 42 28.21875 L 42 31.78125 L 39 33.53125 L 36 31.78125 L 36 28.21875 Z M 55 28.007813 L 53.28125 29.007813 L 53.28125 31 L 55 32 L 56.71875 31 L 56.71875 29.007813 Z M 30.8125 36 C 30.609375 36 30.398438 36.046875 30.21875 36.148438 L 24.59375 39.398438 C 24.226563 39.601563 24 40 24 40.421875 L 24 46.914063 C 24 47.335938 24.234375 47.726563 24.59375 47.9375 L 26.070313 48.78125 C 26.78125 49.132813 27.046875 49.132813 27.367188 49.132813 C 28.429688 49.132813 29.03125 48.5 29.03125 47.375 L 29.03125 40.96875 C 29.03125 40.867188 28.953125 40.796875 28.867188 40.796875 L 28.15625 40.796875 C 28.054688 40.796875 27.992188 40.875 27.992188 40.96875 L 27.992188 47.375 C 27.992188 47.867188 27.476563 48.367188 26.632813 47.945313 L 25.09375 47.0625 C 25.046875 47.03125 25.007813 46.96875 25.007813 46.90625 L 25.007813 40.414063 C 25.007813 40.359375 25.039063 40.289063 25.09375 40.257813 L 30.71875 37.023438 C 30.78125 36.992188 30.851563 36.992188 30.898438 37.023438 L 36.53125 40.257813 C 36.585938 40.289063 36.617188 40.351563 36.617188 40.414063 L 36.617188 46.90625 C 36.617188 46.976563 36.578125 47.039063 36.53125 47.0625 L 30.898438 50.320313 C 30.851563 50.351563 30.773438 50.351563 30.71875 50.320313 L 29.28125 49.46875 C 29.25 49.445313 29.1875 49.429688 29.148438 49.453125 C 28.75 49.6875 28.671875 49.71875 28.304688 49.84375 C 28.203125 49.875 28.070313 49.9375 28.351563 50.09375 L 30.21875 51.195313 C 30.40625 51.296875 30.609375 51.351563 30.8125 51.351563 C 31.023438 51.351563 31.234375 51.296875 31.398438 51.1875 L 37.023438 47.9375 C 37.390625 47.734375 37.617188 47.335938 37.617188 46.914063 L 37.617188 40.421875 C 37.617188 40 37.382813 39.609375 37.023438 39.398438 L 31.398438 36.148438 C 31.226563 36.046875 31.015625 36 30.8125 36 Z M 39.585938 38.992188 C 39.015625 38.992188 38.507813 39.453125 38.507813 40.070313 C 38.507813 40.664063 38.992188 41.15625 39.585938 41.15625 C 40.179688 41.15625 40.664063 40.664063 40.664063 40.070313 C 40.664063 39.453125 40.171875 38.984375 39.585938 38.992188 Z M 39.570313 39.164063 C 40.085938 39.164063 40.492188 39.5625 40.492188 40.070313 C 40.492188 40.5625 40.078125 40.976563 39.570313 40.992188 C 39.078125 40.992188 38.671875 40.578125 38.671875 40.070313 C 38.671875 39.5625 39.078125 39.164063 39.570313 39.164063 Z M 39.179688 39.460938 L 39.179688 40.671875 L 39.40625 40.671875 L 39.40625 40.1875 L 39.625 40.1875 C 39.710938 40.1875 39.734375 40.226563 39.75 40.289063 C 39.75 40.304688 39.789063 40.617188 39.804688 40.679688 L 40.054688 40.679688 C 40.023438 40.617188 40 40.453125 39.992188 40.351563 C 39.960938 40.195313 39.953125 40.085938 39.789063 40.078125 C 39.875 40.046875 40.023438 40 40.023438 39.78125 C 40.023438 39.453125 39.742188 39.460938 39.59375 39.460938 Z M 39.40625 39.65625 L 39.601563 39.65625 C 39.664063 39.65625 39.78125 39.648438 39.78125 39.8125 C 39.78125 39.882813 39.75 39.992188 39.59375 39.992188 L 39.40625 39.992188 Z M 32.320313 40.648438 C 30.710938 40.648438 29.757813 41.328125 29.757813 42.460938 C 29.757813 43.695313 30.71875 44.023438 32.25 44.179688 C 34.09375 44.367188 34.242188 44.625 34.242188 44.992188 C 34.242188 45.617188 33.734375 45.882813 32.539063 45.882813 C 31.054688 45.882813 30.726563 45.515625 30.617188 44.773438 C 30.609375 44.695313 30.539063 44.632813 30.445313 44.632813 L 29.71875 44.632813 C 29.632813 44.632813 29.554688 44.703125 29.554688 44.804688 C 29.554688 45.75 30.070313 46.875 32.53125 46.875 C 34.335938 46.875 35.359375 46.179688 35.359375 44.945313 C 35.359375 43.734375 34.539063 43.40625 32.8125 43.179688 C 31.054688 42.945313 30.882813 42.820313 30.882813 42.414063 C 30.882813 42.070313 31.023438 41.625 32.320313 41.625 C 33.476563 41.625 33.90625 41.882813 34.085938 42.65625 C 34.109375 42.734375 34.164063 42.78125 34.242188 42.78125 L 34.96875 42.78125 C 35.015625 42.78125 35.054688 42.765625 35.085938 42.742188 C 35.117188 42.703125 35.132813 42.664063 35.125 42.617188 C 35.007813 41.265625 34.125 40.648438 32.320313 40.648438 Z "/>
</g>
</svg>
