<?xml version="1.0" encoding="UTF-8"?>
<svg xmlns="http://www.w3.org/2000/svg" xmlns:xlink="http://www.w3.org/1999/xlink" width="64pt" height="64pt" viewBox="0 0 64 64" version="1.1">
<g id="surface1">
<path style=" stroke:none;fill-rule:nonzero;fill:#000000;fill-opacity:1;" d="M 21.4375 6.5625 L 18.5625 9.4375 L 22.4375 13.3125 C 19.515625 15.546875 17.21875 18.820313 15.75 22.625 L 10.875 20.1875 L 9.125 23.8125 L 14.625 26.5625 C 14.257813 28.3125 14 30.125 14 32 C 14 32.679688 14.015625 33.335938 14.0625 34 L 8 34 L 8 38 L 14.75 38 C 15.234375 40.085938 15.875 42.078125 16.8125 43.875 L 10.8125 48.375 L 13.1875 51.625 L 19.0625 47.25 C 22.296875 51.359375 26.835938 54 32 54 C 37.164063 54 41.703125 51.359375 44.9375 47.25 L 50.8125 51.625 L 53.1875 48.375 L 47.1875 43.875 C 48.125 42.078125 48.765625 40.085938 49.25 38 L 56 38 L 56 34 L 49.9375 34 C 49.984375 33.335938 50 32.679688 50 32 C 50 30.125 49.742188 28.3125 49.375 26.5625 L 54.875 23.8125 L 53.125 20.1875 L 48.25 22.625 C 46.78125 18.820313 44.484375 15.546875 41.5625 13.3125 L 45.4375 9.4375 L 42.5625 6.5625 L 37.9375 11.1875 C 36.09375 10.40625 34.09375 10 32 10 C 29.90625 10 27.90625 10.40625 26.0625 11.1875 Z M 32 14 C 35.953125 14 39.65625 16.1875 42.25 19.75 C 39.984375 20.773438 36.398438 22 32 22 C 27.601563 22 24.015625 20.773438 21.75 19.75 C 24.34375 16.1875 28.046875 14 32 14 Z M 19.8125 23.1875 C 22.117188 24.273438 25.65625 25.546875 30 25.875 L 30 49.8125 C 23.398438 48.5625 18 41.257813 18 32 C 18 28.765625 18.671875 25.773438 19.8125 23.1875 Z M 44.1875 23.1875 C 45.328125 25.773438 46 28.765625 46 32 C 46 41.257813 40.601563 48.5625 34 49.8125 L 34 25.875 C 38.34375 25.546875 41.882813 24.273438 44.1875 23.1875 Z "/>
</g>
</svg>
