<?xml version="1.0" encoding="UTF-8"?>
<svg xmlns="http://www.w3.org/2000/svg" xmlns:xlink="http://www.w3.org/1999/xlink" width="100pt" height="100pt" viewBox="0 0 100 100" version="1.1">
<g id="surface1">
<path style=" stroke:none;fill-rule:nonzero;fill:#000000;fill-opacity:1;" d="M 49.601563 3.96875 C 48.183594 3.96875 46.765625 4.324219 45.503906 5.039063 L 12.082031 23.816406 C 9.523438 25.25 7.9375 27.941406 7.9375 30.824219 L 7.9375 68.382813 C 7.9375 71.265625 9.523438 73.957031 12.082031 75.390625 L 45.503906 94.167969 C 46.765625 94.882813 48.183594 95.238281 49.601563 95.238281 C 51.023438 95.238281 52.441406 94.882813 53.703125 94.167969 L 87.125 75.398438 C 89.679688 73.957031 91.269531 71.265625 91.269531 68.382813 L 91.269531 30.824219 C 91.269531 27.941406 89.679688 25.25 87.125 23.816406 L 53.703125 5.039063 C 52.441406 4.324219 51.023438 3.96875 49.601563 3.96875 Z M 49.601563 25.792969 C 57.105469 25.792969 64.042969 29.273438 68.539063 35.195313 L 59.839844 40.234375 C 57.230469 37.371094 53.515625 35.714844 49.601563 35.714844 C 41.945313 35.714844 35.714844 41.945313 35.714844 49.601563 C 35.714844 57.261719 41.945313 63.492188 49.601563 63.492188 C 53.515625 63.492188 57.230469 61.832031 59.839844 58.972656 L 68.539063 64.011719 C 64.042969 69.933594 57.105469 73.414063 49.601563 73.414063 C 36.472656 73.414063 25.792969 62.734375 25.792969 49.601563 C 25.792969 36.472656 36.472656 25.792969 49.601563 25.792969 Z M 69.445313 39.683594 L 73.414063 39.683594 L 73.414063 43.652344 L 77.382813 43.652344 L 77.382813 39.683594 L 81.347656 39.683594 L 81.347656 43.652344 L 85.316406 43.652344 L 85.316406 47.617188 L 81.347656 47.617188 L 81.347656 51.585938 L 85.316406 51.585938 L 85.316406 55.554688 L 81.347656 55.554688 L 81.347656 59.523438 L 77.382813 59.523438 L 77.382813 55.554688 L 73.414063 55.554688 L 73.414063 59.523438 L 69.445313 59.523438 L 69.445313 55.554688 L 65.476563 55.554688 L 65.476563 51.585938 L 69.445313 51.585938 L 69.445313 47.617188 L 65.476563 47.617188 L 65.476563 43.652344 L 69.445313 43.652344 Z M 73.414063 47.617188 L 73.414063 51.585938 L 77.382813 51.585938 L 77.382813 47.617188 Z "/>
</g>
</svg>
