<?xml version="1.0" encoding="UTF-8"?>
<svg xmlns="http://www.w3.org/2000/svg" xmlns:xlink="http://www.w3.org/1999/xlink" width="60pt" height="60pt" viewBox="0 0 60 60" version="1.1">
<g id="surface1">
<path style=" stroke:none;fill-rule:nonzero;fill:#000000;fill-opacity:1;" d="M 47.367188 7.894531 L 11.84375 7.894531 C 9.660156 7.894531 7.894531 9.660156 7.894531 11.84375 L 7.894531 47.367188 C 7.894531 49.550781 9.660156 51.316406 11.84375 51.316406 L 47.367188 51.316406 C 49.550781 51.316406 51.316406 49.550781 51.316406 47.367188 L 51.316406 11.84375 C 51.316406 9.660156 49.550781 7.894531 47.367188 7.894531 Z M 29.605469 40.222656 C 29.605469 43.730469 27.453125 45.695313 23.882813 45.695313 C 20.355469 45.695313 18.101563 43.636719 18.101563 40.296875 L 21.925781 40.296875 C 21.933594 41.539063 22.675781 42.320313 23.816406 42.320313 C 24.988281 42.320313 25.621094 41.578125 25.621094 40.191406 L 25.621094 29.597656 L 29.605469 29.597656 Z M 40.421875 45.695313 C 36.460938 45.695313 33.960938 43.828125 33.898438 40.808594 L 37.699219 40.808594 C 37.792969 41.949219 38.933594 42.671875 40.582031 42.671875 C 42.070313 42.671875 43.097656 41.964844 43.097656 40.929688 C 43.097656 40.058594 42.410156 39.589844 40.613281 39.234375 L 38.554688 38.824219 C 35.6875 38.277344 34.214844 36.714844 34.214844 34.253906 C 34.214844 31.1875 36.667969 29.179688 40.445313 29.179688 C 44.113281 29.179688 46.660156 31.164063 46.722656 34.070313 L 43.042969 34.070313 C 42.949219 32.960938 41.902344 32.1875 40.5 32.1875 C 39.097656 32.1875 38.179688 32.851563 38.179688 33.890625 C 38.179688 34.746094 38.871094 35.25 40.523438 35.574219 L 42.535156 35.964844 C 45.632813 36.566406 47.023438 37.960938 47.023438 40.453125 C 47.023438 43.722656 44.53125 45.695313 40.421875 45.695313 Z "/>
</g>
</svg>
