<?xml version="1.0" encoding="UTF-8"?>
<svg xmlns="http://www.w3.org/2000/svg" xmlns:xlink="http://www.w3.org/1999/xlink" width="60pt" height="60pt" viewBox="0 0 60 60" version="1.1">
<g id="surface1">
<path style=" stroke:none;fill-rule:nonzero;fill:#000000;fill-opacity:1;" d="M 21.078125 8.25 C 19.875 8.25 18.757813 8.527344 17.761719 9.097656 C 14.664063 10.878906 13.484375 15.234375 14.109375 20.660156 C 9.105469 22.835938 5.921875 26.027344 5.921875 29.605469 C 5.921875 33.183594 9.105469 36.375 14.109375 38.546875 C 13.492188 43.976563 14.664063 48.332031 17.761719 50.113281 C 18.75 50.683594 19.867188 50.953125 21.078125 50.953125 C 23.644531 50.953125 26.621094 49.664063 29.605469 47.453125 C 32.589844 49.664063 35.566406 50.953125 38.140625 50.953125 C 39.34375 50.953125 40.460938 50.683594 41.449219 50.113281 C 44.546875 48.332031 45.726563 43.976563 45.101563 38.546875 C 50.105469 36.375 53.289063 33.183594 53.289063 29.605469 C 53.289063 26.027344 50.105469 22.835938 45.09375 20.660156 C 45.71875 15.234375 44.546875 10.878906 41.449219 9.097656 C 40.460938 8.519531 39.34375 8.25 38.132813 8.25 C 35.566406 8.25 32.589844 9.542969 29.605469 11.757813 C 26.621094 9.542969 23.644531 8.25 21.078125 8.25 Z M 21.078125 11.703125 C 22.621094 11.703125 24.664063 12.527344 26.875 14.046875 C 25.574219 15.273438 24.300781 16.675781 23.066406 18.226563 C 21.078125 18.519531 19.203125 18.925781 17.46875 19.453125 C 17.453125 19.328125 17.429688 19.203125 17.425781 19.089844 C 17.214844 15.574219 17.988281 12.953125 19.488281 12.089844 C 19.9375 11.828125 20.453125 11.703125 21.078125 11.703125 Z M 38.132813 11.703125 C 38.757813 11.703125 39.273438 11.828125 39.71875 12.089844 C 41.222656 12.953125 41.996094 15.574219 41.785156 19.089844 C 41.777344 19.203125 41.753906 19.328125 41.75 19.453125 C 40.003906 18.925781 38.125 18.519531 36.136719 18.226563 C 34.910156 16.675781 33.636719 15.273438 32.335938 14.046875 C 34.546875 12.527344 36.589844 11.703125 38.132813 11.703125 Z M 29.605469 16.238281 C 30.136719 16.730469 30.667969 17.238281 31.207031 17.808594 C 30.675781 17.785156 30.144531 17.761719 29.605469 17.761719 C 29.066406 17.761719 28.535156 17.785156 28 17.808594 C 28.542969 17.246094 29.074219 16.730469 29.605469 16.238281 Z M 29.605469 21.21875 C 31.238281 21.21875 32.789063 21.308594 34.261719 21.464844 C 35.15625 22.691406 36.042969 23.976563 36.875 25.410156 C 37.667969 26.785156 38.371094 28.195313 38.988281 29.605469 C 38.371094 31.015625 37.667969 32.425781 36.875 33.800781 C 36.042969 35.234375 35.164063 36.511719 34.269531 37.730469 C 32.742188 37.902344 31.1875 37.992188 29.605469 37.992188 C 27.972656 37.992188 26.421875 37.902344 24.949219 37.746094 C 24.054688 36.519531 23.167969 35.242188 22.335938 33.800781 C 21.539063 32.425781 20.839844 31.015625 20.222656 29.605469 C 20.839844 28.195313 21.539063 26.785156 22.335938 25.410156 C 23.167969 23.976563 24.046875 22.699219 24.941406 21.480469 C 26.46875 21.308594 28.023438 21.21875 29.605469 21.21875 Z M 38.972656 22.289063 C 39.757813 22.472656 40.507813 22.675781 41.214844 22.90625 C 41.054688 23.628906 40.863281 24.371094 40.636719 25.109375 C 40.382813 24.640625 40.136719 24.164063 39.867188 23.683594 C 39.582031 23.199219 39.265625 22.757813 38.972656 22.289063 Z M 20.230469 22.289063 C 19.9375 22.757813 19.628906 23.199219 19.351563 23.683594 C 19.074219 24.164063 18.828125 24.640625 18.574219 25.109375 C 18.347656 24.371094 18.148438 23.628906 17.996094 22.90625 C 18.710938 22.675781 19.460938 22.472656 20.230469 22.289063 Z M 14.742188 24.171875 C 15.15625 25.929688 15.734375 27.746094 16.476563 29.605469 C 15.734375 31.457031 15.15625 33.265625 14.742188 35.023438 C 11.308594 33.359375 9.375 31.292969 9.375 29.605469 C 9.375 27.871094 11.257813 25.898438 14.402344 24.324219 C 14.507813 24.269531 14.632813 24.222656 14.742188 24.171875 Z M 44.46875 24.183594 C 47.898438 25.851563 49.835938 27.917969 49.835938 29.605469 C 49.835938 31.339844 47.953125 33.3125 44.808594 34.886719 C 44.699219 34.941406 44.578125 34.988281 44.46875 35.039063 C 44.054688 33.28125 43.484375 31.464844 42.742188 29.605469 C 43.476563 27.753906 44.054688 25.941406 44.46875 24.183594 Z M 29.605469 25.65625 C 27.421875 25.65625 25.65625 27.421875 25.65625 29.605469 C 25.65625 31.789063 27.421875 33.550781 29.605469 33.550781 C 31.789063 33.550781 33.550781 31.789063 33.550781 29.605469 C 33.550781 27.421875 31.789063 25.65625 29.605469 25.65625 Z M 18.574219 34.101563 C 18.828125 34.570313 19.074219 35.046875 19.351563 35.527344 C 19.636719 36.011719 19.945313 36.453125 20.238281 36.921875 C 19.453125 36.738281 18.703125 36.535156 17.996094 36.304688 C 18.15625 35.582031 18.347656 34.839844 18.574219 34.101563 Z M 40.636719 34.101563 C 40.863281 34.847656 41.0625 35.582031 41.222656 36.304688 C 40.5 36.535156 39.75 36.738281 38.980469 36.921875 C 39.273438 36.453125 39.582031 36.011719 39.867188 35.527344 C 40.136719 35.046875 40.382813 34.578125 40.636719 34.101563 Z M 17.46875 39.757813 C 19.203125 40.28125 21.085938 40.691406 23.074219 40.984375 C 24.300781 42.535156 25.574219 43.9375 26.875 45.171875 C 24.664063 46.691406 22.621094 47.507813 21.078125 47.507813 C 20.453125 47.507813 19.9375 47.382813 19.488281 47.121094 C 17.988281 46.257813 17.214844 43.644531 17.425781 40.128906 C 17.429688 40.003906 17.453125 39.882813 17.46875 39.757813 Z M 41.75 39.757813 C 41.753906 39.882813 41.777344 40.003906 41.785156 40.128906 C 41.996094 43.644531 41.222656 46.257813 39.71875 47.121094 C 39.273438 47.382813 38.757813 47.507813 38.132813 47.507813 C 36.589844 47.507813 34.546875 46.691406 32.335938 45.171875 C 33.636719 43.9375 34.910156 42.535156 36.144531 40.984375 C 38.132813 40.691406 40.003906 40.28125 41.75 39.757813 Z M 28 41.410156 C 28.535156 41.425781 29.066406 41.449219 29.605469 41.449219 C 30.144531 41.449219 30.675781 41.425781 31.207031 41.410156 C 30.667969 41.972656 30.136719 42.480469 29.605469 42.964844 C 29.074219 42.480469 28.542969 41.972656 28 41.410156 Z "/>
</g>
</svg>
