<?xml version="1.0" encoding="UTF-8"?>
<svg xmlns="http://www.w3.org/2000/svg" xmlns:xlink="http://www.w3.org/1999/xlink" width="64pt" height="64pt" viewBox="0 0 64 64" version="1.1">
<g id="surface1">
<path style=" stroke:none;fill-rule:nonzero;fill:#000000;fill-opacity:1;" d="M 32 8 C 22.085938 8 14 16.085938 14 26 C 14 31.710938 16.875 35.75 19.5 38.625 C 20.8125 40.0625 22.109375 41.289063 22.9375 42.25 C 23.765625 43.210938 24 43.835938 24 44 C 24 44.0625 24 44.125 24 44.1875 L 24 50 C 24 52.1875 25.8125 54 28 54 L 30 56 L 34 56 L 36 54 C 38.1875 54 40 52.1875 40 50 L 40 44.625 C 40.007813 44.523438 40.007813 44.414063 40 44.3125 C 40 44.039063 40.296875 43.3125 41.125 42.3125 C 41.953125 41.3125 43.195313 40.085938 44.5 38.625 C 47.117188 35.703125 50 31.671875 50 26 C 50 16.085938 41.914063 8 32 8 Z M 12 12 C 10.898438 12 10 12.898438 10 14 C 10 15.101563 10.898438 16 12 16 C 13.101563 16 14 15.101563 14 14 C 14 12.898438 13.101563 12 12 12 Z M 32 12 C 39.757813 12 46 18.242188 46 26 C 46 30.335938 43.882813 33.335938 41.5 36 C 40.304688 37.328125 39.046875 38.484375 38 39.75 C 37.4375 40.429688 36.9375 41.179688 36.5625 42 L 27.5625 42 C 27.171875 41.109375 26.5625 40.351563 25.9375 39.625 C 24.890625 38.414063 23.6875 37.234375 22.5 35.9375 C 20.125 33.335938 18 30.390625 18 26 C 18 18.242188 24.242188 12 32 12 Z M 52 12 C 50.898438 12 50 12.898438 50 14 C 50 15.101563 50.898438 16 52 16 C 53.101563 16 54 15.101563 54 14 C 54 12.898438 53.101563 12 52 12 Z M 8 24 C 6.898438 24 6 24.898438 6 26 C 6 27.101563 6.898438 28 8 28 C 9.101563 28 10 27.101563 10 26 C 10 24.898438 9.101563 24 8 24 Z M 56 24 C 54.898438 24 54 24.898438 54 26 C 54 27.101563 54.898438 28 56 28 C 57.101563 28 58 27.101563 58 26 C 58 24.898438 57.101563 24 56 24 Z M 12 36 C 10.898438 36 10 36.898438 10 38 C 10 39.101563 10.898438 40 12 40 C 13.101563 40 14 39.101563 14 38 C 14 36.898438 13.101563 36 12 36 Z M 52 36 C 50.898438 36 50 36.898438 50 38 C 50 39.101563 50.898438 40 52 40 C 53.101563 40 54 39.101563 54 38 C 54 36.898438 53.101563 36 52 36 Z M 28 46 L 36 46 L 36 50 L 28 50 Z "/>
</g>
</svg>
